<?xml version="1.0" encoding="UTF-8"?>
<svg width="185px" height="113px" viewBox="0 0 185 113" version="1.1" xmlns="http://www.w3.org/2000/svg" xmlns:xlink="http://www.w3.org/1999/xlink">
    <!-- Generator: Sketch 61.2 (89653) - https://sketch.com -->
    <title>Group 30</title>
    <desc>Created with Sketch.</desc>
    <g id="Page-1" stroke="none" stroke-width="1" fill="none" fill-rule="evenodd">
        <g id="Group-30">
            <rect id="Rectangle" fill="#FFDB62" x="0" y="0" width="185" height="113"></rect>
            <g id="Group-20">
                <g id="Group-11">
                    <g id="Group-14" style="mix-blend-mode: multiply;">
                        <g id="Group-5" transform="translate(58.499998, 41.399999)">
                            <polygon id="Fill-1" fill="#DFE6EA" style="mix-blend-mode: multiply;" points="0 69.7499982 125.999997 69.7499982 125.999997 9.44999975 0 9.44999975"></polygon>
                            <circle id="Oval" stroke="#151429" stroke-width="0.899999976" style="mix-blend-mode: multiply;" cx="8.09999979" cy="2.69999993" r="2.24999994"></circle>
                            <circle id="Oval" stroke="#151429" stroke-width="0.899999976" style="mix-blend-mode: multiply;" cx="16.1999996" cy="2.69999993" r="2.24999994"></circle>
                            <circle id="Oval" stroke="#151429" stroke-width="0.899999976" style="mix-blend-mode: multiply;" cx="24.2999994" cy="2.69999993" r="2.24999994"></circle>
                        </g>
                        <g id="Group-15" transform="translate(81.899998, 67.949998)" fill="#1F1E37" fill-rule="nonzero">
                            <path d="M3.8015999,12.2204 L3.8015999,11.0864 C4.52159988,11 5.07419987,10.7588 5.45939986,10.3628 C5.84459985,9.96680003 6.03719984,9.45920004 6.03719984,8.84000006 C6.03719984,8.58080006 6.00119984,8.33600007 5.92919984,8.10560008 C5.85719984,7.87520008 5.74019985,7.66820009 5.57819985,7.48460009 C5.41619986,7.3010001 5.20919986,7.1444001 4.95719987,7.01480011 C4.70519988,6.88520011 4.39919988,6.78800011 4.03919989,6.72320011 L4.03919989,6.72320011 L3.7475999,6.68000011 L3.7475999,4.39040018 C4.04999989,4.42640017 4.31459989,4.51280017 4.54139988,4.64960017 C4.76819987,4.78640016 4.96799987,4.96640016 5.14079986,5.18960015 L5.14079986,5.18960015 L5.92919984,4.47680017 C5.67719985,4.15280018 5.37839986,3.89720019 5.03279987,3.71000019 C4.68719988,3.5228002 4.27679989,3.4040002 3.8015999,3.3536002 L3.8015999,3.3536002 L3.8015999,2.24120023 L2.89439992,2.24120023 L2.89439992,3.3536002 C2.20319994,3.4256002 1.66679996,3.64340019 1.28519997,4.00700019 C0.903599976,4.37060018 0.712799981,4.85840016 0.712799981,5.47040015 C0.712799981,5.72960014 0.74879998,5.97260013 0.820799978,6.19940013 C0.892799976,6.42620012 1.00799997,6.63320012 1.16639997,6.82040011 C1.32479996,7.00760011 1.52999996,7.1660001 1.78199995,7.2956001 C2.03399995,7.42520009 2.33999994,7.52240009 2.69999993,7.58720009 L2.69999993,7.58720009 L2.94839992,7.63040009 L2.94839992,10.1036 C2.60279993,10.0676 2.29319994,9.96860003 2.01959995,9.80660003 C1.74599995,9.64460004 1.48679996,9.41600004 1.24199997,9.12080005 L1.24199997,9.12080005 L0.464399988,9.86600003 C0.716399981,10.2116 1.04039997,10.496 1.43639996,10.7192 C1.83239995,10.9424 2.31839994,11.0756 2.89439992,11.1188 L2.89439992,11.1188 L2.89439992,12.2204 L3.8015999,12.2204 Z M2.94839992,6.52880012 C2.55959993,6.44240012 2.28059994,6.31460012 2.11139994,6.14540013 C1.94219995,5.97620013 1.85759995,5.74040014 1.85759995,5.43800015 C1.85759995,4.81160016 2.22119994,4.45520017 2.94839992,4.36880018 L2.94839992,4.36880018 L2.94839992,6.52880012 Z M3.7475999,10.0928 L3.7475999,7.78160009 C4.15799989,7.86080008 4.45139988,7.98500008 4.62779988,8.15420008 C4.80419987,8.32340007 4.89239987,8.57000006 4.89239987,8.89400006 C4.89239987,9.23240005 4.79519987,9.50240004 4.60079988,9.70400003 C4.40639988,9.90560003 4.12199989,10.0352 3.7475999,10.0928 L3.7475999,10.0928 Z" id="$"></path>
                            <path d="M13.7843996,11 L13.7843996,7.2200001 C13.7843996,7.0616001 13.8185996,6.92120011 13.8869996,6.79880011 C13.9553996,6.67640011 14.0471996,6.57560012 14.1623996,6.49640012 C14.2775996,6.41720012 14.4071996,6.35780012 14.5511996,6.31820012 C14.6951996,6.27860013 14.8427996,6.25880013 14.9939996,6.25880013 C15.7643996,6.25880013 16.1495996,6.70160011 16.1495996,7.58720009 L16.1495996,7.58720009 L16.1495996,11 L17.3267995,11 L17.3267995,7.41440009 C17.3267995,6.73760011 17.1539995,6.21560013 16.8083996,5.84840014 C16.4627996,5.48120015 16.0091996,5.29760015 15.4475996,5.29760015 C15.2171996,5.29760015 15.0155996,5.32640015 14.8427996,5.38400015 C14.6699996,5.44160015 14.5187996,5.51900015 14.3891996,5.61620014 C14.2595996,5.71340014 14.1497996,5.82860014 14.0597996,5.96180013 C13.9697996,6.09500013 13.8959996,6.23360013 13.8383996,6.37760012 L13.8383996,6.37760012 L13.7843996,6.37760012 L13.7843996,5.42720015 L12.6071997,5.42720015 L12.6071997,11 L13.7843996,11 Z M21.4387512,13.2895999 C22.4251512,13.2895999 23.1595512,13.1527999 23.6419512,12.8792 C24.1243512,12.6056 24.3655512,12.1808 24.3655512,11.6048 C24.3655512,11.144 24.1999512,10.7714 23.8687512,10.487 C23.5375512,10.2026 22.9975512,10.0604 22.2487512,10.0604 L22.2487512,10.0604 L20.9959512,10.0604 C20.7511512,10.0604 20.5459513,10.0388 20.3803513,9.99560003 C20.2147513,9.95240003 20.1319513,9.84440003 20.1319513,9.67160004 C20.1319513,9.52040004 20.1967513,9.40160004 20.3263513,9.31520004 C20.4559513,9.22880005 20.5855513,9.16760005 20.7151512,9.13160005 C20.9311512,9.17480005 21.1615512,9.19640005 21.4063512,9.19640005 C21.7519512,9.19640005 22.0633512,9.15140005 22.3405512,9.06140005 C22.6177512,8.97140005 22.8553512,8.84180006 23.0533512,8.67260006 C23.2513512,8.50340007 23.4043512,8.29820007 23.5123512,8.05700008 C23.6203512,7.81580008 23.6743512,7.54760009 23.6743512,7.2524001 C23.6743512,6.91400011 23.6095512,6.61700012 23.4799512,6.36140012 C23.3503512,6.10580013 23.1631512,5.89520014 22.9183512,5.72960014 L22.9183512,5.72960014 L22.9183512,5.47040015 L24.2143512,5.47040015 L24.2143512,4.54160017 L23.1991512,4.54160017 C22.9471512,4.54160017 22.7599512,4.61360017 22.6375512,4.75760017 C22.5151512,4.90160016 22.4539512,5.08160016 22.4539512,5.29760015 L22.4539512,5.29760015 L22.4539512,5.48120015 C22.1443512,5.35880015 21.7951512,5.29760015 21.4063512,5.29760015 C21.0607512,5.29760015 20.7493512,5.34440015 20.4721513,5.43800015 C20.1949513,5.53160014 19.9573513,5.66300014 19.7593513,5.83220014 C19.5613513,6.00140013 19.4083513,6.20660013 19.3003513,6.44780012 C19.1923513,6.68900011 19.1383513,6.95720011 19.1383513,7.2524001 C19.1383513,7.65560009 19.2319513,8.00120008 19.4191513,8.28920007 C19.6063513,8.57720006 19.8691513,8.80040006 20.2075513,8.95880005 L20.2075513,8.95880005 L20.2075513,9.01280005 C19.9123513,9.08480005 19.6711513,9.19100005 19.4839513,9.33140004 C19.2967513,9.47180004 19.2031513,9.67880003 19.2031513,9.95240003 C19.2031513,10.1612 19.2589513,10.3304 19.3705513,10.46 C19.4821513,10.5896 19.6315513,10.6904 19.8187513,10.7624 L19.8187513,10.7624 L19.8187513,10.8704 C19.5091513,10.9496 19.2697513,11.0738 19.1005513,11.243 C18.9313513,11.4122 18.8467513,11.648 18.8467513,11.9504 C18.8467513,12.1592 18.8917513,12.3464 18.9817513,12.512 C19.0717513,12.6776 19.2193513,12.818 19.4245513,12.9331999 C19.6297513,13.0483999 19.8961513,13.1365999 20.2237513,13.1977999 C20.5513513,13.2589999 20.9563512,13.2895999 21.4387512,13.2895999 Z M21.4063512,8.38640007 C21.0247512,8.38640007 20.7439512,8.29640007 20.5639513,8.11640008 C20.3839513,7.93640008 20.2939513,7.69520009 20.2939513,7.3928001 L20.2939513,7.3928001 L20.2939513,7.1012001 C20.2939513,6.79880011 20.3839513,6.55760012 20.5639513,6.37760012 C20.7439512,6.19760013 21.0247512,6.10760013 21.4063512,6.10760013 C21.7879512,6.10760013 22.0687512,6.19760013 22.2487512,6.37760012 C22.4287512,6.55760012 22.5187512,6.79880011 22.5187512,7.1012001 L22.5187512,7.1012001 L22.5187512,7.3928001 C22.5187512,7.69520009 22.4287512,7.93640008 22.2487512,8.11640008 C22.0687512,8.29640007 21.7879512,8.38640007 21.4063512,8.38640007 Z M21.8923512,12.458 L21.0175512,12.458 C20.6071513,12.458 20.3137513,12.3824 20.1373513,12.2312 C19.9609513,12.08 19.8727513,11.9 19.8727513,11.6912 C19.8727513,11.4032 20.0095513,11.1944 20.2831513,11.0648 L20.2831513,11.0648 L22.2163512,11.0648 C22.6123512,11.0648 22.8859512,11.1206 23.0371512,11.2322 C23.1883512,11.3438 23.2639512,11.4932 23.2639512,11.6804 C23.2639512,11.9324 23.1469512,12.125 22.9129512,12.2582 C22.6789512,12.3914 22.3387512,12.458 21.8923512,12.458 L21.8923512,12.458 Z M30.2163028,11 L30.2163028,10.0496 L28.1967028,10.0496 L28.1967028,7.96520008 C28.1967028,7.53320009 28.3335028,7.1894001 28.6071028,6.93380011 C28.8807028,6.67820011 29.2335028,6.55040012 29.6655028,6.55040012 L29.6655028,6.55040012 L30.7671028,6.55040012 L30.7671028,5.42720015 L30.0975028,5.42720015 C29.8167028,5.42720015 29.5719028,5.46860015 29.3631028,5.55140014 C29.1543028,5.63420014 28.9779028,5.74220014 28.8339028,5.87540014 C28.6899028,6.00860013 28.5711028,6.16520013 28.4775028,6.34520012 C28.3839028,6.52520012 28.3119028,6.71240011 28.2615028,6.90680011 L28.2615028,6.90680011 L28.1967028,6.90680011 L28.1967028,5.42720015 L25.5399029,5.42720015 L25.5399029,6.37760012 L27.0195029,6.37760012 L27.0195029,10.0496 L25.5399029,10.0496 L25.5399029,11 L30.2163028,11 Z M34.4686545,11.1296 C34.8790545,11.1296 35.2480545,11.0612 35.5756545,10.9244 C35.9032544,10.7876 36.1804544,10.5932 36.4072544,10.3412 C36.6340544,10.0892 36.8086544,9.78320003 36.9310544,9.42320004 C37.0534544,9.06320005 37.1146544,8.66000006 37.1146544,8.21360007 C37.1146544,7.76720009 37.0534544,7.3640001 36.9310544,7.00400011 C36.8086544,6.64400012 36.6340544,6.33800012 36.4072544,6.08600013 C36.1804544,5.83400014 35.9032544,5.63960014 35.5756545,5.50280015 C35.2480545,5.36600015 34.8790545,5.29760015 34.4686545,5.29760015 C34.0582545,5.29760015 33.6892545,5.36600015 33.3616545,5.50280015 C33.0340545,5.63960014 32.7568545,5.83400014 32.5300545,6.08600013 C32.3032545,6.33800012 32.1286545,6.64400012 32.0062545,7.00400011 C31.8838545,7.3640001 31.8226546,7.76720009 31.8226546,8.21360007 C31.8226546,8.66000006 31.8838545,9.06320005 32.0062545,9.42320004 C32.1286545,9.78320003 32.3032545,10.0892 32.5300545,10.3412 C32.7568545,10.5932 33.0340545,10.7876 33.3616545,10.9244 C33.6892545,11.0612 34.0582545,11.1296 34.4686545,11.1296 Z M34.4686545,10.2008 C34.0366545,10.2008 33.6928545,10.0694 33.4372545,9.80660003 C33.1816545,9.54380004 33.0538545,9.15320005 33.0538545,8.63480006 L33.0538545,8.63480006 L33.0538545,7.79240008 C33.0538545,7.2740001 33.1816545,6.88340011 33.4372545,6.62060012 C33.6928545,6.35780012 34.0366545,6.22640013 34.4686545,6.22640013 C34.9006545,6.22640013 35.2444545,6.35780012 35.5000545,6.62060012 C35.7556544,6.88340011 35.8834544,7.2740001 35.8834544,7.79240008 L35.8834544,7.79240008 L35.8834544,8.63480006 C35.8834544,9.15320005 35.7556544,9.54380004 35.5000545,9.80660003 C35.2444545,10.0694 34.9006545,10.2008 34.4686545,10.2008 Z M39.8658061,11 L39.8658061,9.01280005 L40.6434061,8.28920007 L42.5874061,11 L44.002206,11 L41.4966061,7.61960009 L43.753806,5.42720015 L42.3606061,5.42720015 L40.7946061,6.93920011 L39.9198061,7.83560008 L39.8658061,7.83560008 L39.8658061,3.00800021 L38.6886062,3.00800021 L38.6886062,11 L39.8658061,11 Z" id="ngrok"></path>
                            <path d="M53.6399986,11.1296 C54.0863986,11.1296 54.4787986,11.0738 54.8171985,10.9622 C55.1555985,10.8506 55.4399985,10.6976 55.6703985,10.5032 C55.9007985,10.3088 56.0753985,10.0784 56.1941985,9.81200003 C56.3129985,9.54560004 56.3723985,9.25400005 56.3723985,8.93720005 C56.3723985,8.43320007 56.2319985,8.03000008 55.9511985,7.72760009 C55.6703985,7.42520009 55.3031985,7.2128001 54.8495985,7.0904001 L54.8495985,7.0904001 L54.8495985,7.00400011 C55.2383985,6.86720011 55.5515985,6.65120012 55.7891985,6.35600012 C56.0267985,6.06080013 56.1455985,5.69720014 56.1455985,5.26520015 C56.1455985,4.68200017 55.9277985,4.21400018 55.4921985,3.86120019 C55.0565985,3.5084002 54.4391986,3.3320002 53.6399986,3.3320002 C52.8407986,3.3320002 52.2233986,3.5084002 51.7877986,3.86120019 C51.3521986,4.21400018 51.1343986,4.68200017 51.1343986,5.26520015 C51.1343986,5.69720014 51.2531986,6.06080013 51.4907986,6.35600012 C51.7283986,6.65120012 52.0415986,6.86720011 52.4303986,7.00400011 L52.4303986,7.00400011 L52.4303986,7.0904001 C51.9767986,7.2128001 51.6095986,7.42520009 51.3287986,7.72760009 C51.0479986,8.03000008 50.9075987,8.43320007 50.9075987,8.93720005 C50.9075987,9.25400005 50.9669986,9.54560004 51.0857986,9.81200003 C51.2045986,10.0784 51.3791986,10.3088 51.6095986,10.5032 C51.8399986,10.6976 52.1243986,10.8506 52.4627986,10.9622 C52.8011986,11.0738 53.1935986,11.1296 53.6399986,11.1296 Z M53.6399986,6.61520012 C53.2079986,6.61520012 52.8785986,6.51980012 52.6517986,6.32900012 C52.4249986,6.13820013 52.3115986,5.87000014 52.3115986,5.52440015 L52.3115986,5.52440015 L52.3115986,5.38400015 C52.3115986,5.03840016 52.4249986,4.77020017 52.6517986,4.57940017 C52.8785986,4.38860018 53.2079986,4.29320018 53.6399986,4.29320018 C54.0719986,4.29320018 54.4013986,4.38860018 54.6281986,4.57940017 C54.8549985,4.77020017 54.9683985,5.03840016 54.9683985,5.38400015 L54.9683985,5.38400015 L54.9683985,5.52440015 C54.9683985,5.87000014 54.8549985,6.13820013 54.6281986,6.32900012 C54.4013986,6.51980012 54.0719986,6.61520012 53.6399986,6.61520012 Z M53.6399986,10.1684 C53.1647986,10.1684 52.7993986,10.064 52.5437986,9.85520003 C52.2881986,9.64640004 52.1603986,9.35120004 52.1603986,8.96960005 L52.1603986,8.96960005 L52.1603986,8.74280006 C52.1603986,8.36120007 52.2881986,8.06600008 52.5437986,7.85720008 C52.7993986,7.64840009 53.1647986,7.54400009 53.6399986,7.54400009 C54.1151986,7.54400009 54.4805986,7.64840009 54.7361985,7.85720008 C54.9917985,8.06600008 55.1195985,8.36120007 55.1195985,8.74280006 L55.1195985,8.74280006 L55.1195985,8.96960005 C55.1195985,9.35120004 54.9917985,9.64640004 54.7361985,9.85520003 C54.4805986,10.064 54.1151986,10.1684 53.6399986,10.1684 Z M60.1495502,11.1296 C60.6247502,11.1296 61.0369502,11.0414 61.3861502,10.865 C61.7353502,10.6886 62.0233502,10.4348 62.2501501,10.1036 C62.4769501,9.77240003 62.6443501,9.36560004 62.7523501,8.88320006 C62.8603501,8.40080007 62.9143501,7.85000008 62.9143501,7.2308001 C62.9143501,6.61880012 62.8603501,6.06980013 62.7523501,5.58380014 C62.6443501,5.09780016 62.4769501,4.68920017 62.2501501,4.35800018 C62.0233502,4.02680018 61.7353502,3.77300019 61.3861502,3.5966002 C61.0369502,3.4202002 60.6247502,3.3320002 60.1495502,3.3320002 C59.6743502,3.3320002 59.2621502,3.4202002 58.9129502,3.5966002 C58.5637502,3.77300019 58.2757503,4.02680018 58.0489503,4.35800018 C57.8221503,4.68920017 57.6547503,5.09780016 57.5467503,5.58380014 C57.4387503,6.06980013 57.3847503,6.61880012 57.3847503,7.2308001 C57.3847503,7.85000008 57.4387503,8.40080007 57.5467503,8.88320006 C57.6547503,9.36560004 57.8221503,9.77240003 58.0489503,10.1036 C58.2757503,10.4348 58.5637502,10.6886 58.9129502,10.865 C59.2621502,11.0414 59.6743502,11.1296 60.1495502,11.1296 Z M60.1495502,10.136 C59.8759502,10.136 59.6419502,10.0838 59.4475502,9.97940003 C59.2531502,9.87500003 59.0947502,9.72380003 58.9723502,9.52580004 C58.8499502,9.32780004 58.7617502,9.09020005 58.7077502,8.81300006 C58.6537502,8.53580007 58.6267502,8.22440007 58.6267502,7.87880008 L58.6267502,7.87880008 L58.6267502,6.58280012 C58.6267502,6.23720013 58.6537502,5.92580013 58.7077502,5.64860014 C58.7617502,5.37140015 58.8499502,5.13380016 58.9723502,4.93580016 C59.0947502,4.73780017 59.2531502,4.58660017 59.4475502,4.48220017 C59.6419502,4.37780018 59.8759502,4.32560018 60.1495502,4.32560018 C60.6967502,4.32560018 61.0873502,4.52900017 61.3213502,4.93580016 C61.5553502,5.34260015 61.6723502,5.89160014 61.6723502,6.58280012 L61.6723502,6.58280012 L61.6723502,7.87880008 C61.6723502,8.57000006 61.5553502,9.11900005 61.3213502,9.52580004 C61.0873502,9.93260003 60.6967502,10.136 60.1495502,10.136 Z M60.1495502,7.86800008 C60.4015502,7.86800008 60.5761502,7.81760008 60.6733502,7.71680009 C60.7705502,7.61600009 60.8191502,7.49360009 60.8191502,7.3496001 L60.8191502,7.3496001 L60.8191502,7.1120001 C60.8191502,6.96800011 60.7705502,6.84560011 60.6733502,6.74480011 C60.5761502,6.64400012 60.4015502,6.59360012 60.1495502,6.59360012 C59.8975502,6.59360012 59.7229502,6.64400012 59.6257502,6.74480011 C59.5285502,6.84560011 59.4799502,6.96800011 59.4799502,7.1120001 L59.4799502,7.1120001 L59.4799502,7.3496001 C59.4799502,7.49360009 59.5285502,7.61600009 59.6257502,7.71680009 C59.7229502,7.81760008 59.8975502,7.86800008 60.1495502,7.86800008 Z M66.6591018,11.1296 C67.1055018,11.1296 67.4979018,11.0738 67.8363018,10.9622 C68.1747018,10.8506 68.4591018,10.6976 68.6895018,10.5032 C68.9199018,10.3088 69.0945018,10.0784 69.2133018,9.81200003 C69.3321018,9.54560004 69.3915018,9.25400005 69.3915018,8.93720005 C69.3915018,8.43320007 69.2511018,8.03000008 68.9703018,7.72760009 C68.6895018,7.42520009 68.3223018,7.2128001 67.8687018,7.0904001 L67.8687018,7.0904001 L67.8687018,7.00400011 C68.2575018,6.86720011 68.5707018,6.65120012 68.8083018,6.35600012 C69.0459018,6.06080013 69.1647018,5.69720014 69.1647018,5.26520015 C69.1647018,4.68200017 68.9469018,4.21400018 68.5113018,3.86120019 C68.0757018,3.5084002 67.4583018,3.3320002 66.6591018,3.3320002 C65.8599019,3.3320002 65.2425019,3.5084002 64.8069019,3.86120019 C64.3713019,4.21400018 64.1535019,4.68200017 64.1535019,5.26520015 C64.1535019,5.69720014 64.2723019,6.06080013 64.5099019,6.35600012 C64.7475019,6.65120012 65.0607019,6.86720011 65.4495019,7.00400011 L65.4495019,7.00400011 L65.4495019,7.0904001 C64.9959019,7.2128001 64.6287019,7.42520009 64.3479019,7.72760009 C64.0671019,8.03000008 63.9267019,8.43320007 63.9267019,8.93720005 C63.9267019,9.25400005 63.9861019,9.54560004 64.1049019,9.81200003 C64.2237019,10.0784 64.3983019,10.3088 64.6287019,10.5032 C64.8591019,10.6976 65.1435019,10.8506 65.4819019,10.9622 C65.8203019,11.0738 66.2127018,11.1296 66.6591018,11.1296 Z M66.6591018,6.61520012 C66.2271018,6.61520012 65.8977018,6.51980012 65.6709019,6.32900012 C65.4441019,6.13820013 65.3307019,5.87000014 65.3307019,5.52440015 L65.3307019,5.52440015 L65.3307019,5.38400015 C65.3307019,5.03840016 65.4441019,4.77020017 65.6709019,4.57940017 C65.8977018,4.38860018 66.2271018,4.29320018 66.6591018,4.29320018 C67.0911018,4.29320018 67.4205018,4.38860018 67.6473018,4.57940017 C67.8741018,4.77020017 67.9875018,5.03840016 67.9875018,5.38400015 L67.9875018,5.38400015 L67.9875018,5.52440015 C67.9875018,5.87000014 67.8741018,6.13820013 67.6473018,6.32900012 C67.4205018,6.51980012 67.0911018,6.61520012 66.6591018,6.61520012 Z M66.6591018,10.1684 C66.1839018,10.1684 65.8185019,10.064 65.5629019,9.85520003 C65.3073019,9.64640004 65.1795019,9.35120004 65.1795019,8.96960005 L65.1795019,8.96960005 L65.1795019,8.74280006 C65.1795019,8.36120007 65.3073019,8.06600008 65.5629019,7.85720008 C65.8185019,7.64840009 66.1839018,7.54400009 66.6591018,7.54400009 C67.1343018,7.54400009 67.4997018,7.64840009 67.7553018,7.85720008 C68.0109018,8.06600008 68.1387018,8.36120007 68.1387018,8.74280006 L68.1387018,8.74280006 L68.1387018,8.96960005 C68.1387018,9.35120004 68.0109018,9.64640004 67.7553018,9.85520003 C67.4997018,10.064 67.1343018,10.1684 66.6591018,10.1684 Z M73.1686535,11.1296 C73.6438534,11.1296 74.0560534,11.0414 74.4052534,10.865 C74.7544534,10.6886 75.0424534,10.4348 75.2692534,10.1036 C75.4960534,9.77240003 75.6634534,9.36560004 75.7714534,8.88320006 C75.8794534,8.40080007 75.9334534,7.85000008 75.9334534,7.2308001 C75.9334534,6.61880012 75.8794534,6.06980013 75.7714534,5.58380014 C75.6634534,5.09780016 75.4960534,4.68920017 75.2692534,4.35800018 C75.0424534,4.02680018 74.7544534,3.77300019 74.4052534,3.5966002 C74.0560534,3.4202002 73.6438534,3.3320002 73.1686535,3.3320002 C72.6934535,3.3320002 72.2812535,3.4202002 71.9320535,3.5966002 C71.5828535,3.77300019 71.2948535,4.02680018 71.0680535,4.35800018 C70.8412535,4.68920017 70.6738535,5.09780016 70.5658535,5.58380014 C70.4578535,6.06980013 70.4038535,6.61880012 70.4038535,7.2308001 C70.4038535,7.85000008 70.4578535,8.40080007 70.5658535,8.88320006 C70.6738535,9.36560004 70.8412535,9.77240003 71.0680535,10.1036 C71.2948535,10.4348 71.5828535,10.6886 71.9320535,10.865 C72.2812535,11.0414 72.6934535,11.1296 73.1686535,11.1296 Z M73.1686535,10.136 C72.8950535,10.136 72.6610535,10.0838 72.4666535,9.97940003 C72.2722535,9.87500003 72.1138535,9.72380003 71.9914535,9.52580004 C71.8690535,9.32780004 71.7808535,9.09020005 71.7268535,8.81300006 C71.6728535,8.53580007 71.6458535,8.22440007 71.6458535,7.87880008 L71.6458535,7.87880008 L71.6458535,6.58280012 C71.6458535,6.23720013 71.6728535,5.92580013 71.7268535,5.64860014 C71.7808535,5.37140015 71.8690535,5.13380016 71.9914535,4.93580016 C72.1138535,4.73780017 72.2722535,4.58660017 72.4666535,4.48220017 C72.6610535,4.37780018 72.8950535,4.32560018 73.1686535,4.32560018 C73.7158534,4.32560018 74.1064534,4.52900017 74.3404534,4.93580016 C74.5744534,5.34260015 74.6914534,5.89160014 74.6914534,6.58280012 L74.6914534,6.58280012 L74.6914534,7.87880008 C74.6914534,8.57000006 74.5744534,9.11900005 74.3404534,9.52580004 C74.1064534,9.93260003 73.7158534,10.136 73.1686535,10.136 Z M73.1686535,7.86800008 C73.4206534,7.86800008 73.5952534,7.81760008 73.6924534,7.71680009 C73.7896534,7.61600009 73.8382534,7.49360009 73.8382534,7.3496001 L73.8382534,7.3496001 L73.8382534,7.1120001 C73.8382534,6.96800011 73.7896534,6.84560011 73.6924534,6.74480011 C73.5952534,6.64400012 73.4206534,6.59360012 73.1686535,6.59360012 C72.9166535,6.59360012 72.7420535,6.64400012 72.6448535,6.74480011 C72.5476535,6.84560011 72.4990535,6.96800011 72.4990535,7.1120001 L72.4990535,7.1120001 L72.4990535,7.3496001 C72.4990535,7.49360009 72.5476535,7.61600009 72.6448535,7.71680009 C72.7420535,7.81760008 72.9166535,7.86800008 73.1686535,7.86800008 Z" id="8080"></path>
                        </g>
                        <g id="Group-10">
                            <path d="M33.7499991,67.5 C43.9638572,67.5 53.1180107,62.9628637 59.3069489,55.7941053 C61.8010325,52.9051635 57.9006839,39.6320958 59.3069489,36.0131038 C60.7793491,32.2239144 67.5,38.0596626 67.5,33.7499991 C67.5,15.1103893 52.3896089,0 33.7499991,0 C15.1103893,0 0,15.1103893 0,33.7499991 C0,52.3896089 15.1103893,67.5 33.7499991,67.5 Z" id="Oval" fill="#DFE6EA" style="mix-blend-mode: multiply;"></path>
                            <line x1="27.8999993" y1="42.7499989" x2="42.2999989" y2="42.7499989" id="Stroke-12" stroke="#1F1E37" stroke-width="1.34999996" stroke-linecap="round"></line>
                            <path d="M34.8749991,22.4999994 C35.2167253,22.4999994 35.4991409,22.7539379 35.5438371,23.0834059 L35.5499991,23.1749994 L35.5489993,35.9389994 L41.3398752,30.1463622 C41.5794374,29.9066447 41.9544276,29.8847377 42.2187415,30.0807211 L42.2944692,30.1460529 C42.5341868,30.3856152 42.5560937,30.7606054 42.3601103,31.0249192 L42.2947785,31.100647 L35.3925958,38.008289 C35.3670241,38.0388039 35.338804,38.067024 35.308289,38.0925958 L34.8703353,38.5299026 L27.1975476,30.8521416 C26.9340291,30.5884523 26.9341676,30.161066 27.1978569,29.8975475 C27.4375744,29.6579853 27.8125787,29.6363213 28.0767655,29.8324759 L28.1524509,29.8978568 L34.1989993,35.9489994 L34.1999991,23.1749994 C34.1999991,22.8022072 34.5022069,22.4999994 34.8749991,22.4999994 Z" id="Combined-Shape" fill="#1F1E37" fill-rule="nonzero"></path>
                        </g>
                    </g>
                </g>
                <rect id="Rectangle" stroke="#151429" stroke-width="1.34999996" x="59.1749984" y="34.8749991" width="124.649997" height="76.949998" rx="2.69999993"></rect>
            </g>
        </g>
    </g>
</svg>