<?xml version="1.0" encoding="UTF-8"?>
<svg width="185px" height="71px" viewBox="0 0 185 71" version="1.1" xmlns="http://www.w3.org/2000/svg" xmlns:xlink="http://www.w3.org/1999/xlink">
    <!-- Generator: Sketch 61.2 (89653) - https://sketch.com -->
    <title>Group 31</title>
    <desc>Created with Sketch.</desc>
    <g id="Page-1" stroke="none" stroke-width="1" fill="none" fill-rule="evenodd">
        <g id="Group-31" transform="translate(1.000000, -10.000000)">
            <rect id="Rectangle" fill="#FFDB62" x="0" y="10" width="183" height="71"></rect>
            <g id="Group-12" transform="translate(11.000000, 0.000000)">
                <g id="Group-16" style="mix-blend-mode: multiply;" transform="translate(0.500000, 0.000000)">
                    <g id="Group-9" transform="translate(0.000000, 0.135900)"></g>
                    <path d="M112.290871,36.2938811 C108.411492,21.4837646 95.0511454,11 79.5578848,11 C69.3183523,11 59.5683592,15.7232293 53.1624495,23.711703 C51.2175227,23.2893634 49.2692881,23.0773633 47.3486178,23.0773633 C31.993178,23.0773633 19.5000001,35.6196876 19.5000001,51.0381281 C19.5000001,66.4560151 31.9915241,79 47.3486178,79 L117.866548,79 C129.795212,79 139.5,69.2562984 139.5,57.2791232 C139.5,45.3019479 129.793558,35.5587998 117.865997,35.5587998 C115.970134,35.5587998 114.104592,35.8034579 112.290871,36.2938811 Z" id="Fill-7" fill="#DFE6EA"></path>
                </g>
                <g id="Group-24" transform="translate(107.000000, 47.000000)" stroke="#1F1E37" stroke-linecap="round" stroke-width="1.34999996">
                    <line x1="37.900003" y1="7.50000119" x2="1.90007652" y2="7.42722372" id="Stroke-4"></line>
                    <polyline id="Stroke-6" points="6.95194571 14.3999996 0 7.32620079 7.19999981 0"></polyline>
                </g>
                <g id="Group-24" transform="translate(34.000000, 54.500000) rotate(-180.000000) translate(-34.000000, -54.500000) translate(15.000000, 47.000000)" stroke="#1F1E37" stroke-linecap="round" stroke-width="1.34999996">
                    <line x1="37.7999984" y1="7.89999843" x2="1.79999995" y2="7.4249998" id="Stroke-4"></line>
                    <polyline id="Stroke-6" points="6.95194571 14.3999996 0 7.32620079 7.19999981 0"></polyline>
                </g>
            </g>
            <path d="M168.3261,64.3600995 C168.3261,63.8965996 168.6357,63.5113996 169.0974,63.5113996 L175.5018,63.5113996 C175.9644,63.5113996 176.3505,63.8965996 176.3505,64.3600995 L168.3261,64.3600995 Z M163.4661,47 L181.211399,47 C181.982699,47 182.600099,47.6939 182.600099,48.4661 L182.600099,59.3452997 C182.600099,60.1165997 181.982699,60.8113996 181.211399,60.8113996 L163.4661,60.8113996 C162.6165,60.8113996 162,60.1165997 162,59.3452997 L162,48.4661 C162,47.6939 162.6165,47 163.4661,47 Z" id="Stroke-12" stroke="#1F1E37" stroke-width="1.34999996" stroke-linecap="round"></path>
            <path d="M6.32609983,64.3600995 C6.32609983,63.8965996 6.63569982,63.5113996 7.09739981,63.5113996 L13.5017996,63.5113996 C13.9643996,63.5113996 14.3504996,63.8965996 14.3504996,64.3600995 L6.32609983,64.3600995 Z M1.46609996,47 L19.2113995,47 C19.9826995,47 20.6000995,47.6939 20.6000995,48.4661 L20.6000995,59.3452997 C20.6000995,60.1165997 19.9826995,60.8113996 19.2113995,60.8113996 L1.46609996,60.8113996 C0.616499984,60.8113996 0,60.1165997 0,59.3452997 L0,48.4661 C0,47.6939 0.616499984,47 1.46609996,47 Z" id="Stroke-12" stroke="#1F1E37" stroke-width="1.34999996" stroke-linecap="round"></path>
        </g>
    </g>
</svg>