<?xml version="1.0" encoding="UTF-8"?><svg id="_層_1" xmlns="http://www.w3.org/2000/svg" viewBox="0 0 248 80"><defs><style>.cls-1{fill:#f9c158;}.cls-2{fill:#83ccd2;}.cls-3{fill:#abcd03;}.cls-4{fill:#4ba83b;}</style></defs><g><rect class="cls-4" x="104.83" y="31.32" width="4.34" height="41.75" transform="translate(53.83 158.72) rotate(-89.48)"/><polygon class="cls-4" points="90.74 47.04 95.09 47.08 95.14 40.7 100.56 40.75 100.51 47.12 104.84 47.17 104.91 40.79 110.33 40.84 110.27 47.22 114.61 47.26 114.68 40.88 120.1 40.92 120.04 47.31 124.38 47.35 124.44 40.96 127.97 41 128.01 36.66 124.48 36.63 124.52 32.05 120.18 32.01 120.14 36.59 114.72 36.54 114.75 31.96 110.42 31.92 110.37 36.5 104.95 36.45 104.99 31.88 100.64 31.83 100.6 36.41 95.18 36.37 95.22 31.79 90.88 31.75 90.84 36.33 86.26 36.28 86.22 40.62 90.8 40.66 90.74 47.04"/><polygon class="cls-4" points="127.52 23.27 91.12 23.27 91.13 19.09 86.79 19.09 86.78 27.61 127.52 27.61 127.52 23.27"/><polygon class="cls-4" points="169.69 32.26 187.38 32.26 187.38 28.65 169.69 28.65 169.69 26.19 189.96 26.19 189.96 22.47 169.69 22.47 169.69 19.09 164.3 19.09 164.3 22.47 143.8 22.47 143.8 26.19 164.3 26.19 164.3 28.65 146.67 28.65 146.67 32.26 164.3 32.26 164.3 35 142.83 35 142.83 38.73 191.62 38.73 191.62 35 169.69 35 169.69 32.26"/><path class="cls-4" d="M248,36.55h-40.19v31.28h5.38v-12.88h2.81v12.88h11.57v-3.61h-6.19v-9.27h1.37l22.59,13.04,1.8-3.13-2.31-1.33v-8.58h3.16v-3.61h-34.81v-11.19h34.81v-3.61Zm-8.54,23.89l-9.49-5.48h9.49v5.48Z"/><rect class="cls-4" x="214.94" y="43.63" width="29.95" height="3.61"/><path class="cls-4" d="M185.55,44.44v-3.61h-36.25v7.2h-5.32v3.61h5.32v7.85h30.86v4.24h-18.57v3.61h23.95v-7.85h2.71v-3.61h-2.71v-4.24h4.34v-3.61h-4.34v-3.59Zm-5.38,3.59h-11.84l-3.51-3.59h15.35v3.59Zm-25.48-3.59h5.26l-.09,.09,3.42,3.5h-8.59v-3.59Zm0,7.2h12.12l4.15,4.24h-16.27v-4.24Zm25.48,4.24h-4.16l-4.15-4.24h8.31v4.24Z"/><path class="cls-4" d="M231.72,23.84l-.03-.02c-1.3-1.54-2.71-2.34-4.17-2.35-1.23-.01-2.25,.54-2.97,1.1l-.89-1.42c-1.3-2.07-2.73-3.13-4.24-3.15-2.57-.02-4.18,3.01-4.21,3.07l-7.63,11.68h31.63l-7.49-8.91Z"/><path class="cls-4" d="M246.81,31.01l-5.67-9.84c-1.2-2.09-2.54-3.16-3.97-3.17-2.39-.02-3.83,2.84-3.95,3.1l-.44,.74,7.97,9.18h6.06Z"/><path class="cls-4" d="M85.11,66.38l3.62,1.45c1.92-2.74,3.93-7.04,5.23-10.4l-3.62-.93c-1.29,3.36-3.41,7.4-5.23,9.88Z"/><path class="cls-4" d="M98.98,57.94c.62,3.1,1.09,7.09,1.09,9.47l3.78-.57c-.05-2.33-.62-6.21-1.29-9.21l-3.57,.31Z"/><path class="cls-4" d="M109.63,57.84c1.29,3.05,2.64,7.04,3.1,9.47l3.78-.78c-.52-2.43-1.92-6.36-3.36-9.31l-3.52,.62Z"/><path class="cls-4" d="M120.29,57.63c1.86,3.21,4.19,7.5,5.17,10.09l3.72-1.6c-1.14-2.53-3.52-6.78-5.43-9.88l-3.47,1.4Z"/></g><g><path class="cls-3" d="M58.75,37.98c-4.46,.3-8.91,1.56-13.19,3.76-3.35,1.72-6.6,4.02-9.66,6.81-3.66,3.34-6.2,6.62-7.44,8.37h28.31c1.95-3.64,2.98-7.74,2.98-11.9,0-2.4-.33-4.76-1-7.05Z"/><path class="cls-1" d="M60.48,23.89h4.45c-.38-1.73-1.92-4.77-8.05-4.99-5.07-.18-6.94-2.69-9.09-5.6-1.57-2.12-3.41-4.6-7.02-6.95,3.39,3.97,7.49,10,9.47,17.55h10.24Z"/><path class="cls-2" d="M36.63,73.17c.38-2.18,2.35-3.27,2.44-3.31l.16-.08,.17-.03c1.34-.27,2.66-.64,3.93-1.11l-1.67-2.92-.03-.23c-.4-3.06,2.06-4.45,3.42-4.76l.5-.11,5.32,3.64c1.71-1.46,3.21-3.13,4.47-4.98H13.66c1.28,1.87,2.79,3.55,4.53,5.02l5.31-3.62,.5,.11c1.36,.31,3.82,1.71,3.42,4.76l-.03,.23-1.67,2.92c1.27,.47,2.59,.84,3.93,1.11l.17,.03,.16,.08c.08,.05,2.06,1.13,2.44,3.31,.18,1.07-.05,2.17-.67,3.29,1.85,.16,3.74,.16,5.61,0-.65-1.14-.89-2.26-.7-3.34Z"/><path class="cls-1" d="M34.75,31.77c-5.02,0-9.11,4.09-9.11,9.11,0,.45,.04,.91,.1,1.36,3.36,.98,6.46,2.32,9.23,4,2.81-2.48,5.77-4.57,8.83-6.21-.43-4.61-4.35-8.26-9.06-8.26Z"/><path class="cls-1" d="M47.82,23.89c-2.06-7.32-6.2-13.09-9.43-16.73,1.87,4.71,3.9,11.43,2.98,16.73h6.45Z"/><path class="cls-1" d="M34.74,4.63c-1.86,4.03-5.55,13.11-4.24,19.26h8.48c1.31-6.16-2.39-15.25-4.24-19.26Z"/><path class="cls-1" d="M21.68,23.89h6.44c-.92-5.29,1.11-12,2.98-16.72-3.22,3.62-7.36,9.38-9.42,16.72Z"/><path class="cls-1" d="M19.25,23.89c2.1-8,6.57-14.28,10.05-18.21-4.33,2.54-6.36,5.29-8.09,7.62-2.16,2.91-4.02,5.43-9.09,5.61-3.04,.11-5.29,.92-6.67,2.42-.81,.88-1.18,1.84-1.35,2.56h15.16Z"/><path class="cls-3" d="M9.36,42.77c-.07,.74-.1,1.5-.1,2.26,0,4.16,1.03,8.26,2.98,11.9h13.39c.41-.65,3-4.64,7.55-9.04-2.65-1.53-5.58-2.74-8.77-3.6l.31-1.13h0l-.31,1.12c-6.72-1.84-12.81-1.67-15.05-1.52Z"/><path class="cls-4" d="M63.77,26.79h3.57c.3,0,.54-.23,.55-.53l.05-1.12c0-.13,.11-3.21-2.26-5.78-1.93-2.09-4.86-3.22-8.7-3.35-3.68-.13-4.81-1.66-6.87-4.43-2.35-3.17-5.56-7.51-14.25-10.93h0c-.59-.24-1.04-.39-1.04-.39l-.17-.06c-.06-.02-.12-.03-.17-.03-.07,0-.13,.01-.19,.04l-.39,.15c-9.25,3.45-12.58,7.95-15.01,11.23-2.06,2.78-3.19,4.31-6.87,4.44-3.84,.13-6.77,1.26-8.7,3.35-2.37,2.57-2.27,5.65-2.26,5.78l.05,1.12c.01,.3,.26,.53,.55,.53h3.57C1.81,32.25,0,38.54,0,45.05c0,8.32,3,16.35,8.45,22.62,5.4,6.21,12.82,10.29,20.91,11.5,1.66,.26,3.39,.38,5.14,.38s3.47-.13,5.17-.39c8.08-1.21,15.5-5.3,20.89-11.51,5.44-6.27,8.44-14.3,8.44-22.61,0-6.51-1.8-12.8-5.23-18.26Zm-15.98-13.49c2.16,2.91,4.02,5.43,9.09,5.6,6.13,.22,7.67,3.26,8.05,4.99h-14.69c-1.98-7.55-6.08-13.57-9.47-17.55,3.61,2.35,5.44,4.83,7.02,6.95Zm.02,10.59h-6.45c.92-5.3-1.11-12.02-2.98-16.73,3.23,3.64,7.37,9.41,9.43,16.73ZM34.74,4.63c1.85,4.01,5.55,13.1,4.24,19.26h-8.48c-1.31-6.16,2.38-15.24,4.24-19.26Zm-6.63,19.26h-6.44c2.06-7.34,6.2-13.09,9.42-16.72-1.87,4.72-3.89,11.43-2.98,16.72Zm-24.03,0c.17-.72,.54-1.69,1.35-2.56,1.39-1.5,3.63-2.32,6.67-2.42,5.07-.18,6.94-2.69,9.09-5.61,1.72-2.33,3.76-5.07,8.09-7.62-3.48,3.94-7.95,10.21-10.05,18.21H4.09Zm4.78,43.41c.66,.76,1.35,1.49,2.07,2.18-.72-.69-1.41-1.42-2.07-2.18Zm28.47,9.21c-1.87,.17-3.76,.17-5.61,0,.63-1.12,.86-2.22,.67-3.29-.38-2.18-2.35-3.27-2.44-3.31l-.16-.08-.17-.03c-1.34-.27-2.66-.64-3.93-1.11l1.67-2.92,.03-.23c.4-3.06-2.06-4.45-3.42-4.76l-.5-.11-5.31,3.62c-1.74-1.47-3.25-3.15-4.53-5.02H55.34c-1.26,1.85-2.76,3.52-4.47,4.98l-5.32-3.64-.5,.11c-1.36,.31-3.82,1.71-3.42,4.76l.03,.23,1.67,2.92c-1.27,.47-2.59,.84-3.93,1.11l-.17,.03-.16,.08c-.08,.05-2.06,1.13-2.44,3.31-.19,1.08,.06,2.2,.7,3.34Zm-4.16-28.62c-4.55,4.39-7.15,8.39-7.55,9.04H12.23c-1.95-3.64-2.98-7.74-2.98-11.9,0-.76,.03-1.52,.1-2.26,2.25-.15,8.33-.32,15.05,1.52l.31-1.13h0l-.31,1.13c3.18,.87,6.12,2.07,8.77,3.6Zm1.8-1.65c-2.78-1.68-5.88-3.02-9.23-4-.07-.45-.1-.91-.1-1.36,0-5.02,4.09-9.11,9.11-9.11,4.71,0,8.63,3.65,9.06,8.26-3.05,1.64-6.02,3.73-8.83,6.21Zm10.58-4.5c4.28-2.2,8.73-3.47,13.19-3.76,.66,2.28,1,4.65,1,7.05,0,4.16-1.03,8.26-2.98,11.9H28.45c1.25-1.75,3.78-5.04,7.44-8.37,3.06-2.8,6.31-5.09,9.66-6.81Zm-5.63,34.43c-.59-.75-1.13-1.7-.99-2.59,.14-.84,.84-1.4,1.12-1.59,1.87-.38,3.69-.96,5.41-1.7l1.2-.52-2.75-4.8c-.05-1.07,.68-1.58,1.2-1.81l5.86,4,.68-.54c2.76-2.19,5.05-4.86,6.8-7.92,2.37-4.14,3.63-8.87,3.63-13.68,0-2.94-.46-5.85-1.37-8.63l-.26-.81h-.9c-4.59,.18-9.14,1.3-13.52,3.32-.94-5.37-5.67-9.49-11.28-9.49-6.32,0-11.45,5.14-11.45,11.45,0,.24,0,.48,.02,.72-8.17-1.89-14.87-1.11-15.17-1.08l-.9,.11-.12,.9c-.15,1.14-.22,2.32-.22,3.49,0,4.8,1.25,9.52,3.61,13.65,1.76,3.09,4.07,5.77,6.87,7.99l.68,.53,5.84-3.98c.52,.23,1.24,.75,1.2,1.81l-2.75,4.8,1.2,.52c1.73,.75,3.55,1.32,5.41,1.7,.29,.2,.99,.75,1.13,1.59,.14,.87-.37,1.8-.95,2.54-15.01-2.56-26.25-15.83-26.25-31.14,0-6.86,2.15-13.35,6.22-18.81H59.89c4.06,5.47,6.22,11.96,6.22,18.81,0,15.28-11.21,28.53-26.18,31.13Z"/></g></svg>