<svg id="圖層_1" data-name="圖層 1" xmlns="http://www.w3.org/2000/svg" viewBox="0 0 269.33 77.41"><defs><style>.cls-1{fill:#fff;}</style></defs><title>LOGO 白色款</title><rect class="cls-1" x="103.09" y="25.14" width="5.04" height="48.48" transform="translate(55.26 154.54) rotate(-89.48)"/><polygon class="cls-1" points="86.73 43.39 91.77 43.44 91.84 36.03 98.13 36.09 98.08 43.49 103.1 43.55 103.18 36.13 109.47 36.19 109.41 43.61 114.45 43.65 114.52 36.24 120.81 36.3 120.75 43.71 125.79 43.76 125.85 36.34 129.96 36.38 130.01 31.35 125.9 31.31 125.95 25.99 120.91 25.95 120.86 31.27 114.57 31.21 114.61 25.89 109.58 25.84 109.52 31.16 103.23 31.1 103.28 25.79 98.23 25.74 98.18 31.06 91.89 31 91.92 25.68 86.89 25.64 86.85 30.95 81.53 30.91 81.48 35.94 86.8 35.98 86.73 43.39"/><polygon class="cls-1" points="129.43 15.8 87.17 15.8 87.17 10.94 82.14 10.94 82.13 20.83 129.43 20.83 129.43 15.8"/><polygon class="cls-1" points="178.4 26.23 198.94 26.23 198.94 22.04 178.4 22.04 178.4 19.18 201.93 19.18 201.93 14.86 178.4 14.86 178.4 10.94 172.15 10.94 172.15 14.86 148.34 14.86 148.34 19.18 172.15 19.18 172.15 22.04 151.67 22.04 151.67 26.23 172.15 26.23 172.15 29.42 147.21 29.42 147.21 33.74 203.86 33.74 203.86 29.42 178.4 29.42 178.4 26.23"/><path class="cls-1" d="M269.33,31.22H222.66V67.54h6.25v-15h3.26v15h13.44V63.35h-7.19V52.59H240l26.23,15.14,2.09-3.63-2.67-1.54v-10h3.67V48.4H228.91v-13h40.42ZM259.41,59l-11-6.36h11Z"/><rect class="cls-1" x="230.94" y="39.43" width="34.78" height="4.19"/><path class="cls-1" d="M196.82,40.38V36.19H154.73v8.36h-6.17v4.19h6.17v9.11h35.84v4.93H169V67h27.81V57.85H200V53.66h-3.14V48.74h5V44.55h-5Zm-6.25,4.17H176.82l-4.07-4.17h17.82ZM161,40.38h6.11l-.1.1,4,4.07H161Zm0,8.36h14.08l4.81,4.92H161Zm29.59,4.92h-4.83l-4.82-4.92h9.65Z"/><path class="cls-1" d="M250.42,16.46l0,0c-1.51-1.8-3.14-2.72-4.84-2.73A5.58,5.58,0,0,0,242.09,15l-1-1.65c-1.51-2.41-3.17-3.64-4.93-3.65-3,0-4.85,3.49-4.88,3.56L222.39,26.8h36.73Z"/><path class="cls-1" d="M268,24.79l-6.58-11.43c-1.39-2.42-3-3.66-4.62-3.68-2.77,0-4.45,3.3-4.58,3.59l-.51.86,9.25,10.66Z"/><path class="cls-1" d="M80.19,65.85l4.2,1.68a62.33,62.33,0,0,0,6.07-12.08l-4.2-1.08A56.42,56.42,0,0,1,80.19,65.85Z"/><path class="cls-1" d="M96.29,56.05a65.8,65.8,0,0,1,1.26,11l4.39-.66a64.23,64.23,0,0,0-1.5-10.7Z"/><path class="cls-1" d="M108.67,55.93a65,65,0,0,1,3.6,11l4.39-.9a54.3,54.3,0,0,0-3.91-10.82Z"/><path class="cls-1" d="M121,55.69a98.06,98.06,0,0,1,6,11.72l4.33-1.86a123.48,123.48,0,0,0-6.31-11.48Z"/><path class="cls-1" d="M62.19,26h3.48a.54.54,0,0,0,.54-.52l.05-1.09a8.42,8.42,0,0,0-2.21-5.63c-1.88-2-4.73-3.14-8.48-3.27-3.59-.12-4.69-1.62-6.7-4.32C46.58,8,43.45,3.8,35,.46h0c-.58-.23-1-.38-1-.38l-.17,0a.47.47,0,0,0-.17,0,.63.63,0,0,0-.19,0l-.37.15C24,3.54,20.79,7.92,18.42,11.12c-2,2.71-3.11,4.2-6.7,4.33-3.75.13-6.6,1.23-8.49,3.27A8.39,8.39,0,0,0,1,24.35l.05,1.09a.54.54,0,0,0,.54.52H5.1A33.64,33.64,0,0,0,28.64,77a32.87,32.87,0,0,0,5,.38,34,34,0,0,0,5-.38A33.64,33.64,0,0,0,62.19,26ZM46.6,12.81c2.11,2.84,3.92,5.29,8.87,5.46,6,.21,7.48,3.18,7.85,4.87H49A44,44,0,0,0,39.76,6,24.71,24.71,0,0,1,46.6,12.81Zm0,10.33H40.34c.9-5.17-1.08-11.72-2.91-16.32A42.32,42.32,0,0,1,46.63,23.14ZM33.88,4.35C35.69,8.26,39.29,17.13,38,23.14H29.75C28.47,17.13,32.07,8.28,33.88,4.35ZM27.42,23.14H21.14a42.24,42.24,0,0,1,9.18-16.3C28.5,11.44,26.53,18,27.42,23.14ZM4,23.14a5.54,5.54,0,0,1,1.32-2.5c1.35-1.47,3.54-2.26,6.51-2.37,4.94-.17,6.76-2.62,8.86-5.46a24.6,24.6,0,0,1,7.89-7.43,44.47,44.47,0,0,0-9.8,17.76H4ZM8.65,65.47c.64.74,1.32,1.45,2,2.13C10,66.92,9.29,66.21,8.65,65.47Zm27.76,9a31.23,31.23,0,0,1-5.47,0,4.79,4.79,0,0,0,.66-3.2A4.93,4.93,0,0,0,29.22,68L29.07,68l-.17,0a25,25,0,0,1-3.83-1.08L26.7,64l0-.23a4.19,4.19,0,0,0-3.34-4.64L22.91,59l-5.18,3.53a24.39,24.39,0,0,1-4.41-4.89H54a24,24,0,0,1-4.37,4.85L44.41,59l-.48.11a4.17,4.17,0,0,0-3.34,4.64l0,.23,1.63,2.84a25,25,0,0,1-3.83,1.08l-.17,0L38.1,68a4.93,4.93,0,0,0-2.38,3.23A4.88,4.88,0,0,0,36.41,74.46ZM32.35,46.54A50.55,50.55,0,0,0,25,55.36H11.93A24.64,24.64,0,0,1,9,43.75c0-.74,0-1.48.09-2.21A46.75,46.75,0,0,1,23.8,43l.3-1.1h0l-.3,1.1A36.55,36.55,0,0,1,32.35,46.54Zm1.76-1.61a37.52,37.52,0,0,0-9-3.9A9.92,9.92,0,0,1,25,39.7a8.88,8.88,0,0,1,17.72-.83A46.29,46.29,0,0,0,34.11,44.93Zm10.32-4.38a32.6,32.6,0,0,1,12.86-3.67,24.73,24.73,0,0,1-1.93,18.48H27.75A51.36,51.36,0,0,1,35,47.19,43.65,43.65,0,0,1,44.43,40.55Zm-5.5,33.57a3.53,3.53,0,0,1-1-2.52,2.54,2.54,0,0,1,1.1-1.55,26.77,26.77,0,0,0,5.28-1.66l1.17-.51L42.84,63.2A1.8,1.8,0,0,1,44,61.43l5.71,3.91.66-.53A27,27,0,0,0,59.2,35.33L59,34.55h-.88a34.39,34.39,0,0,0-13.19,3.24A11.16,11.16,0,0,0,22.72,39.7c0,.23,0,.47,0,.7A47.17,47.17,0,0,0,8,39.35l-.88.11L7,40.34a25.59,25.59,0,0,0-.22,3.41A26.85,26.85,0,0,0,17,64.85l.66.52,5.69-3.88a1.83,1.83,0,0,1,1.17,1.77L21.8,67.94l1.17.51a26.57,26.57,0,0,0,5.28,1.66,2.57,2.57,0,0,1,1.1,1.55,3.44,3.44,0,0,1-.93,2.47A31,31,0,0,1,2.82,43.77,30.52,30.52,0,0,1,8.88,25.42H58.4a30.45,30.45,0,0,1,6.06,18.35A31,31,0,0,1,38.93,74.12Z"/></svg>